<?xml version="1.0" encoding="UTF-8" standalone="no"?>
<svg width="120px" height="120px" viewBox="0 0 120 120" version="1.1" xmlns="http://www.w3.org/2000/svg" xmlns:xlink="http://www.w3.org/1999/xlink">
    <!-- Generator: Sketch 40.3 (33839) - http://www.bohemiancoding.com/sketch -->
    <title>Imported Layers Copy 8</title>
    <desc>Created with Sketch.</desc>
    <defs></defs>
    <g id="Place-Holders" stroke="none" stroke-width="1" fill="none" fill-rule="evenodd">
        <g id="place-holder-city-empty-copy" transform="translate(-120.000000, -292.000000)">
            <g id="Group-Copy-2" transform="translate(45.000000, 252.000000)">
                <g id="Imported-Layers-Copy-8" transform="translate(135.000000, 100.000000) scale(-1, 1) translate(-135.000000, -100.000000) translate(75.000000, 40.000000)">
                    <path d="M60,0.072 C93.0972,0.072 119.928,26.90256 119.928,60 C119.928,93.0972 93.0972,119.928 60,119.928 C26.90256,119.928 0.072,93.0972 0.072,60 C0.072,26.90256 26.90256,0.072 60,0.072" id="Fill-1" fill="#EEEEEE"></path>
                    <g id="Group-+-Group" transform="translate(30.000000, 28.000000)">
                        <g id="Group">
                            <rect id="Rectangle-path" fill="#FFFFFF" x="2.85380282" y="10.8532394" width="54.3692958" height="45.3042254"></rect>
                            <rect id="Rectangle-path" fill="#CCCCCC" x="0.125070423" y="0.365070423" width="59.8225352" height="10.488169"></rect>
                            <path d="M37.2380282,10.8532394 L37.2380282,17.268169 C37.2380282,18.5712676 36.1842254,19.6233803 34.8819718,19.6233803 L25.1949296,19.6233803 C23.891831,19.6233803 22.836338,18.5712676 22.836338,17.268169 L22.836338,10.8532394" id="Shape" fill="#FFFFFF"></path>
                        </g>
                        <g id="Group" opacity="0.0208138993" transform="translate(2.535211, 10.140845)" fill="#000000">
                            <polygon id="Shape" points="54.6870423 46.0166197 54.6870423 0.712394366 0.318591549 46.0166197"></polygon>
                        </g>
                    </g>
                    <path d="M48.7536,65.03376 L42.42216,58.70232 L16.81008,84.3144 C15.06168,86.06232 15.06192,88.89768 16.81008,90.64584 C18.55872,92.39448 21.3936,92.39424 23.14152,90.64584 L48.7536,65.03376" id="Fill-3" fill="#FED989"></path>
                    <path d="M15.58536,88.6752 C15.78744,89.35824 16.24464,90.25872 17.0748,90.92352 C17.82696,91.52496 18.81072,91.95744 19.88856,91.95744 C19.90536,91.95744 19.9224,91.9572 19.93944,91.95696 C18.80616,91.94784 17.67504,91.5108 16.81008,90.64584 C16.25376,90.08952 15.87432,89.42304 15.67224,88.71672 C15.61536,88.69104 15.58536,88.6752 15.58536,88.6752" id="Fill-4" fill="#D0BFBE"></path>
                    <path d="M46.26336,62.59104 C46.26336,62.59104 22.60296,86.25096 21.57888,87.27528 C20.12976,88.7244 18.67776,89.09784 17.56608,89.09784 C16.61232,89.09784 15.90888,88.82304 15.67224,88.71672 C15.87432,89.42304 16.25376,90.08952 16.81008,90.64584 C17.67504,91.5108 18.80616,91.94784 19.93944,91.95696 C21.0024,91.94352 22.15392,91.50768 23.26272,90.39912 L48.6672,64.99488 L46.26336,62.59104" id="Fill-5" fill="#FFC343"></path>
                    <path d="M52.90464,63.37968 C53.11008,63.17424 53.11008,62.83824 52.90464,62.63304 L44.6424,54.37128 C44.43696,54.16584 44.10096,54.16584 43.89576,54.37128 L40.93176,57.33552 C40.72632,57.54096 40.72632,57.87696 40.93176,58.0824 L49.19328,66.3444 C49.39872,66.54984 49.73472,66.54984 49.93992,66.3444 L52.90464,63.37968" id="Fill-6" fill="var(--theme-color)"></path>
                    <path d="M52.94088,63.37152 C53.13408,63.17856 53.13408,62.86272 52.94088,62.66952 L50.83464,60.56328 C50.64144,60.37008 50.32536,60.37032 50.13216,60.56328 L47.12424,63.57192 L46.77288,63.9228 L49.23072,66.38016 C49.42344,66.57336 49.74,66.57312 49.93272,66.38016 L52.94088,63.37152" id="Fill-7" fill="#C83142"></path>
                    <path d="M47.7936,59.48232 C38.91,50.59896 38.91,36.14544 47.7936,27.26208 C56.67624,18.37896 71.13072,18.37896 80.01384,27.26208 C88.89648,36.14544 88.89648,50.59896 80.01384,59.48232 C71.13072,68.36544 56.67624,68.36544 47.7936,59.48232 M75.30768,31.968 C69.01968,25.68 58.78824,25.68024 52.49952,31.96824 C46.21152,38.25648 46.21104,48.4884 52.49952,54.77592 C58.78824,61.06464 69.01968,61.06392 75.30768,54.77592 C81.59544,48.48768 81.59664,38.25672 75.30768,31.968" id="Fill-8" fill="var(--theme-color)"></path>
                    <path d="M63.90408,27.252 C62.0136,27.252 60.12408,27.58128 58.32792,28.23984 L69.47928,28.23984 C67.68432,27.58152 65.7936,27.252 63.90408,27.252" id="Fill-9" fill="#CCCCCC"></path>
                    <path d="M69.47928,28.23984 L58.32792,28.23984 C56.20008,29.02032 54.20496,30.26304 52.49952,31.96824 C46.21152,38.25648 46.21104,48.4884 52.49952,54.77592 C55.64352,57.91992 59.77416,59.49216 63.9036,59.49216 C68.034,59.49216 72.16344,57.9204 75.30768,54.77592 C81.59544,48.48768 81.59664,38.25672 75.30768,31.968 C73.60248,30.2628 71.60712,29.02008 69.47928,28.23984" id="Fill-10" fill="#E7E7E7"></path>
                    <path d="M58.32792,28.23984 C60.12408,27.58128 62.0136,27.252 63.90408,27.252 C65.7936,27.252 67.68432,27.58152 69.47928,28.23984 C71.60712,29.02008 73.60248,30.2628 75.30768,31.968 C81.59664,38.25672 81.59544,48.48768 75.30768,54.77592 C72.16344,57.9204 68.034,59.49216 63.9036,59.49216 C59.77416,59.49216 55.64352,57.91992 52.49952,54.77592 C46.21104,48.4884 46.21152,38.25648 52.49952,31.96824 C54.20496,30.26304 56.20008,29.02032 58.32792,28.23984 M63.9036,26.55624 C54.61632,26.55624 47.08752,34.08504 47.08752,43.37232 C47.08752,52.6596 54.61632,60.1884 63.9036,60.1884 C73.19088,60.1884 80.71968,52.6596 80.71968,43.37232 C80.71968,34.08504 73.19088,26.55624 63.9036,26.55624" id="Fill-11" fill="#FE6E7F"></path>
                    <path d="M76.27128,43.95912 C73.3596,43.95912 71.00448,41.604 71.00352,38.69256 C71.00448,41.604 68.6484,43.95912 65.73648,43.95912 C68.64816,43.95912 71.00424,46.31496 71.00424,49.2264 C71.00448,46.31496 73.35984,43.95912 76.27128,43.95912" id="Fill-12" fill="#FFFFFF"></path>
                    <path d="M24.05208,48.27 C20.71752,48.27 18.02016,45.57288 18.0192,42.23856 C18.02016,45.57288 15.32184,48.27 11.98728,48.27 C15.32184,48.27 18.02016,50.96808 18.02016,54.3024 C18.0204,50.96808 20.71752,48.27 24.05208,48.27" id="Fill-13" fill="#FFFFFF"></path>
                    <path d="M104.05208,88.27 C100.71752,88.27 98.02016,85.57288 98.0192,82.23856 C98.02016,85.57288 95.32184,88.27 91.98728,88.27 C95.32184,88.27 98.02016,90.96808 98.02016,94.3024 C98.0204,90.96808 100.71752,88.27 104.05208,88.27" id="Fill-13-Copy" fill="#FFFFFF"></path>
                </g>
            </g>
        </g>
    </g>
</svg>