<svg width="181" height="64" viewBox="0 0 181 64" fill="none" xmlns="http://www.w3.org/2000/svg">
<path fill-rule="evenodd" clip-rule="evenodd" d="M77.6867 -77.8368C65.3613 -74.713 62.1425 -66.8866 42.464 -59.9489C40.2978 -59.0698 38.2063 -58.0131 36.2601 -56.9136C35.3954 -56.3974 34.5545 -55.8416 33.7316 -55.2526C23.3601 -47.8825 16.1512 -35.1558 15.9914 -21.9731C15.3759 -7.82077 22.4135 4.32969 35.1572 9.85789C40.6848 12.2378 47.3359 13.3882 53.2248 16.3105C58.6693 19.1524 63.4344 23.3058 67.0714 28.6861C78.3035 42.9858 91.0247 56.5922 110.206 56.5809C117.538 56.4272 125.794 53.577 129.284 46.5785C132.855 39.114 130.662 30.6562 128.23 23.5825C126.115 14.6601 123.035 6.04681 123.216 -2.95133C123.4 -11.9489 125.798 -20.5637 128.642 -29.0995C130.804 -36.3329 132.597 -44.0995 130.609 -51.0982C128.259 -58.6358 122.323 -63.9392 116.231 -68.3187C105.133 -75.4693 91.1376 -81.6904 77.6867 -77.8368Z" fill="#FFD200"/>
</svg>
