<?xml version="1.0" encoding="iso-8859-1"?>
<!-- Generator: Adobe Illustrator 16.0.0, SVG Export Plug-In . SVG Version: 6.00 Build 0)  -->
<!DOCTYPE svg PUBLIC "-//W3C//DTD SVG 1.1//EN" "http://www.w3.org/Graphics/SVG/1.1/DTD/svg11.dtd">
<svg version="1.1" id="Capa_1" xmlns="http://www.w3.org/2000/svg" xmlns:xlink="http://www.w3.org/1999/xlink" x="0px" y="0px"
	 width="107.639px" height="107.64px" viewBox="0 0 107.639 107.64" style="enable-background:new 0 0 107.639 107.64;"
	 xml:space="preserve">
<g>
	<path d="M17.647,105.535V33.609l6.701,0.543l41.73,8.582v25.82l-0.219,0.147c-0.17,0.115-0.34,0.232-0.49,0.371l-0.143,0.131
		h-3.317l-0.148-0.159c-0.356-0.386-0.813-0.69-1.321-0.884c-2.806-1.063-5.775-1.021-8.557,0.113
		c-0.422,0.172-0.801,0.387-1.125,0.641c-0.275,0.214-0.514,0.46-0.709,0.734l-0.092,0.098c-0.287,0.234-0.533,0.5-0.732,0.789
		c-0.436,0.636-0.857,1.277-1.279,1.92l-0.502,0.763c-1.025,1.55-1.59,3.192-1.969,4.451c-0.799,2.657-1.52,5.563-2.199,8.883
		c-0.555,2.705-1.168,5.91-1.525,9.179c-0.184,1.684-0.268,3.313-0.248,4.844c0.016,1.146,0.139,2.664,0.961,4.217l0.389,0.734
		L17.647,105.535z M18.647,34.693v69.842l22.586-0.01c-0.613-1.474-0.717-2.855-0.732-3.938c-0.02-1.569,0.064-3.242,0.254-4.968
		c0.361-3.309,0.98-6.541,1.539-9.27c0.688-3.35,1.414-6.283,2.223-8.969c0.396-1.324,0.994-3.059,2.09-4.715l0.502-0.762
		c0.426-0.646,0.852-1.295,1.291-1.937c0.24-0.351,0.533-0.672,0.875-0.955c0.244-0.332,0.535-0.631,0.869-0.892
		c0.396-0.307,0.854-0.567,1.361-0.774c3.01-1.231,6.248-1.272,9.289-0.123c0.578,0.22,1.107,0.558,1.543,0.979h2.51
		c0.076-0.061,0.152-0.119,0.232-0.176v-24.48L24.208,35.14L18.647,34.693z M16.557,105.535l-15.734-0.023L8.712,98.5V33.65h7.846
		L16.557,105.535L16.557,105.535z M3.45,104.515l12.107,0.019V34.65H9.711v64.299L3.45,104.515z M66.079,41.773l-41.643-9.021
		l-6.789-0.588V0l7.746,0.025l40.686,13.563V41.773z M18.647,31.248l5.938,0.518l40.494,8.768V14.308L25.153,1h-6.506V31.248z
		 M16.557,32.207l-7.846-0.012V0h7.846V32.207z M9.712,31.197l5.846,0.008V1H9.712V31.197z M99.901,107.64
		c-2.359,0-4.473-1.038-5.152-2.045c-1.01-1.489-1.844-3.739-2.525-5.743l-0.081-0.24c-0.519-1.517-1.033-3.031-1.539-4.554
		c-0.121-0.36-0.429-0.519-0.791-0.68c-2.451,1.801-5.673,1.721-8.041-0.127c-0.068-0.054-0.181-0.093-0.261-0.093l-4.17,0.015
		l-1.934-0.006l-2.234,0.008v-0.013l-3.867-0.004c-0.079,0-0.192,0.039-0.258,0.093c-2.379,1.853-5.619,1.907-8.051,0.135
		c0.002-0.002,0.002-0.004,0.004-0.006c-0.356,0.157-0.666,0.313-0.785,0.679c-0.469,1.399-0.942,2.797-1.418,4.192l-0.205,0.601
		c-0.684,2.006-1.518,4.256-2.524,5.743c-0.683,1.007-2.795,2.045-5.154,2.045c-1.621,0-3.125-0.5-4.35-1.446
		c-2.107-1.734-2.533-3.25-2.561-5.287c-0.018-1.478,0.063-3.047,0.24-4.664c0.354-3.258,0.975-6.488,1.533-9.221
		c0.684-3.338,1.406-6.261,2.209-8.929c0.336-1.116,0.83-2.563,1.688-3.86l0.559-0.849c0.414-0.631,0.828-1.26,1.254-1.881
		c0.154-0.229,0.404-0.365,0.605-0.478c0.037-0.02,0.088-0.049,0.1-0.061c0.008-0.219,0.156-0.408,0.281-0.506
		c0.135-0.107,0.301-0.199,0.502-0.283c2.248-0.918,4.539-0.949,6.795-0.094c0.323,0.119,0.495,0.373,0.469,0.697
		c-0.008,0.096,0.006,0.137,0.013,0.143c0.004,0.006,0.032,0.023,0.112,0.031l0.166,0.051c0.442,0.229,0.926,0.334,1.531,0.336
		h4.721c0.101-0.793,0.767-1.398,1.57-1.398h14.245c0.81,0,1.479,0.613,1.57,1.398h4.59c0.604-0.002,1.086-0.107,1.517-0.33
		l0.172-0.057c0.103-0.008,0.123-0.031,0.123-0.031c0.006-0.006,0.021-0.047,0.012-0.139c-0.03-0.32,0.146-0.582,0.47-0.703
		c2.254-0.854,4.547-0.824,6.793,0.096c0.201,0.082,0.367,0.176,0.504,0.285c0.125,0.096,0.272,0.285,0.285,0.496
		c0.008,0.02,0.059,0.047,0.096,0.068c0.201,0.11,0.451,0.25,0.605,0.479c0.428,0.625,0.846,1.26,1.264,1.896l0.547,0.83
		c0.852,1.284,1.33,2.672,1.688,3.858c0.803,2.67,1.525,5.592,2.209,8.931c0.562,2.729,1.18,5.955,1.535,9.221
		c0.178,1.619,0.258,3.188,0.24,4.664c-0.027,2.037-0.455,3.555-2.555,5.281C103.028,107.14,101.522,107.64,99.901,107.64z
		 M89.829,93.768l0.141,0.024c0.472,0.209,0.99,0.438,1.201,1.077c0.506,1.519,1.021,3.031,1.539,4.548l0.082,0.239
		c0.629,1.853,1.479,4.162,2.453,5.603c0.58,0.854,2.525,1.78,4.656,1.78c1.488,0,2.865-0.456,3.984-1.321
		c1.922-1.582,2.303-2.914,2.328-4.819c0.018-1.451-0.063-2.996-0.236-4.593c-0.354-3.239-0.971-6.45-1.527-9.163
		c-0.68-3.32-1.396-6.226-2.195-8.878c-0.344-1.146-0.807-2.481-1.612-3.702l-0.548-0.83c-0.416-0.634-0.832-1.267-1.26-1.89
		c-0.076-0.11-0.254-0.211-0.397-0.291c-0.154-0.086-0.388-0.213-0.406-0.562l0,0c-0.004,0-0.028-0.037-0.055-0.059
		c-0.097-0.074-0.214-0.139-0.361-0.201c-2.106-0.861-4.239-0.891-6.354-0.088c-0.088,0.031-0.086,0.051-0.082,0.082
		c0.022,0.24-0.027,0.436-0.146,0.58c-0.119,0.143-0.295,0.225-0.523,0.246c-0.469,0.258-1.055,0.387-1.75,0.389h-4.562v6.631
		c0,0.097-0.006,0.191-0.02,0.285l0.004,0.094c0,0.814-0.598,1.49-1.389,1.588c-0.168,0.074-0.423,0.123-0.685,0.123h-13.38
		c-0.309,0-0.607-0.065-0.885-0.196c-0.435-0.134-0.814-0.498-0.98-0.963c-0.139-0.261-0.221-0.595-0.221-0.931l0.014-6.631h-4.596
		c-0.697-0.002-1.283-0.131-1.793-0.396c-0.186-0.015-0.361-0.097-0.48-0.238c-0.119-0.146-0.17-0.34-0.146-0.579
		c0.005-0.031,0.007-0.05-0.079-0.082c-2.121-0.804-4.253-0.773-6.357,0.088c-0.15,0.062-0.268,0.127-0.361,0.2
		c-0.027,0.021-0.053,0.06-0.057,0.072c-0.02,0.334-0.252,0.463-0.404,0.547c-0.145,0.08-0.324,0.179-0.398,0.289
		c-0.426,0.619-0.836,1.246-1.248,1.873l-0.561,0.851c-0.814,1.229-1.289,2.625-1.613,3.7c-0.797,2.652-1.516,5.558-2.195,8.878
		c-0.557,2.717-1.174,5.932-1.525,9.163c-0.174,1.597-0.254,3.142-0.236,4.593c0.025,1.903,0.404,3.237,2.334,4.825
		c1.113,0.859,2.49,1.315,3.977,1.315c2.131,0,4.076-0.926,4.658-1.78c0.974-1.438,1.822-3.748,2.453-5.603l0.205-0.6
		c0.476-1.395,0.948-2.791,1.416-4.189c0.209-0.639,0.729-0.868,1.19-1.071l0.15-0.028c0.16,0,0.307,0.094,0.363,0.133
		c2.221,1.621,5.16,1.565,7.326-0.121c0.172-0.135,0.412-0.219,0.629-0.219l4.467,0.012l1.635-0.004l1.678,0.004l0.256-0.008
		l4.17-0.004c0.216,0,0.455,0.084,0.629,0.219c2.164,1.688,5.105,1.738,7.324,0.123C89.522,93.859,89.67,93.768,89.829,93.768z
		 M68.35,70.543c-0.541,0-0.982,0.441-0.982,0.984v7.401c0,0.151,0.02,0.265,0.059,0.369c0.134,0.25,0.379,0.483,0.672,0.623
		c0.056,0.015,0.152,0.028,0.253,0.028h14.245c0.041,0,0.08-0.004,0.121-0.008c0.433-0.178,0.791-0.633,0.863-1.168l-0.002-7.211
		c0-0.58-0.441-1.021-0.982-1.021L68.35,70.543L68.35,70.543z M85.741,94.604c-2.182,0-3.955-1.773-3.955-3.955
		c0-2.183,1.773-3.955,3.955-3.955s3.955,1.772,3.955,3.955C89.696,92.83,87.922,94.604,85.741,94.604z M85.741,87.293
		c-1.85,0-3.355,1.506-3.355,3.355c0,1.848,1.506,3.354,3.355,3.354c1.852,0,3.355-1.507,3.355-3.354
		C89.096,88.799,87.592,87.293,85.741,87.293z M65.075,94.604c-2.182,0-3.957-1.773-3.957-3.955c0-2.183,1.775-3.955,3.957-3.955
		c2.18,0,3.955,1.772,3.955,3.955C69.03,92.83,67.254,94.604,65.075,94.604z M65.075,87.293c-1.852,0-3.357,1.506-3.357,3.355
		c0,1.848,1.506,3.354,3.357,3.354c1.85,0,3.355-1.507,3.355-3.354C68.43,88.799,66.924,87.293,65.075,87.293z M72.075,92.186
		l-0.047-0.353v-0.271c0-0.183,0-0.361,0.01-0.541c0.029-0.494,0.42-0.865,0.91-0.865c0.301,0.002,0.592,0.004,0.883,0.004
		l1.248-0.006l0.066-0.056c0.006-0.038,0.004-0.084-0.006-0.131l-1.158-0.021l-1.717,0.002l-0.141-0.107
		c-0.048-0.047-0.103-0.133-0.097-0.266c0.002-0.045,0.002-0.078,0.002-0.113l-0.006-0.305l0.305-0.064h3.037
		c0.483,0,0.877,0.363,0.912,0.848c0.013,0.154,0.013,0.383-0.117,0.611c-0.1,0.184-0.307,0.416-0.727,0.463
		c-0.084,0.01-0.166,0.01-0.246,0.01l-1.154,0.002c-0.271,0-0.541,0-0.812-0.004c-0.03,0-0.049,0-0.057,0.06
		c-0.006,0.047-0.004,0.098-0.004,0.146c-0.002,0.202-0.002,0.399,0,0.6l0.002,0.303l-0.348,0.053l-0.189-0.002L72.075,92.186z
		 M75.012,92.183l-0.223-0.198l-0.005-0.168c0.002-0.049,0.002-0.103,0.002-0.156l-0.002-0.121l0.181-0.217l1.063-0.012
		c0.188,0,0.375,0,0.563,0.004c0.072-0.013,0.084-0.039,0.084-0.095c0.002-0.252,0.002-0.5,0.002-0.75v-0.431
		c0-0.223,0.061-0.415,0.18-0.577c0.17-0.231,0.42-0.363,0.703-0.367c0.289-0.002,0.574-0.004,0.861-0.004l1.153,0.002l0.041,0.3
		c0.002,0.129,0.002,0.18,0,0.231l-0.006,0.153l-0.239,0.166l-0.103,0.004l-1.382-0.002c-0.075,0.064-0.077,0.105-0.079,0.148
		l0.002,0.33c0,0.27,0,0.537-0.002,0.805c-0.005,0.342-0.146,0.613-0.408,0.787c-0.164,0.107-0.358,0.162-0.58,0.162L75.012,92.183z
		 M94.778,87.584c-4.045,0-7.336-3.289-7.336-7.334s3.291-7.336,7.336-7.336s7.336,3.291,7.336,7.336S98.823,87.584,94.778,87.584z
		 M93.887,73.572c-3.295,0.438-5.846,3.266-5.846,6.678c0,3.713,3.022,6.734,6.735,6.734c3.338,0,6.117-2.439,6.646-5.629
		c-0.414,0.672-1.155,1.118-2.002,1.118c-1.295,0-2.348-1.053-2.348-2.346c0-1.295,1.053-2.349,2.348-2.349
		c0.803,0,1.512,0.404,1.937,1.019c-0.59-2.677-2.774-4.761-5.504-5.199c0.789,0.38,1.336,1.187,1.336,2.117
		c0,1.295-1.054,2.349-2.349,2.349s-2.348-1.054-2.348-2.349C92.495,74.761,93.067,73.938,93.887,73.572z M99.422,78.381
		c-0.963,0-1.748,0.785-1.748,1.748s0.785,1.746,1.748,1.746c0.965,0,1.748-0.783,1.748-1.746S100.387,78.381,99.422,78.381z
		 M93.358,76.64c0.311,0.494,0.859,0.824,1.484,0.824s1.174-0.33,1.481-0.824H93.358z M94.842,74.09l1.494,2.531
		c0.16-0.264,0.254-0.572,0.254-0.904c0-0.963-0.785-1.748-1.748-1.748c-0.965,0-1.748,0.785-1.748,1.748
		c0,0.33,0.092,0.641,0.252,0.904L94.842,74.09z M94.385,76.041h0.912l-0.455-0.771L94.385,76.041z M56.036,87.584
		c-4.045,0-7.336-3.289-7.336-7.334s3.291-7.336,7.336-7.336s7.336,3.291,7.336,7.336S60.081,87.584,56.036,87.584z M56.036,73.513
		c-3.713,0-6.736,3.021-6.736,6.736c0,3.713,3.023,6.733,6.736,6.733c3.715,0,6.736-3.021,6.736-6.733
		C62.772,76.535,59.75,73.513,56.036,73.513z M94.842,86.895c-1.295,0-2.349-1.054-2.349-2.349s1.054-2.349,2.349-2.349
		s2.348,1.054,2.348,2.349S96.137,86.895,94.842,86.895z M94.842,82.799c-0.965,0-1.748,0.785-1.748,1.748
		c0,0.965,0.783,1.748,1.748,1.748c0.963,0,1.748-0.783,1.748-1.748C96.59,83.584,95.805,82.799,94.842,82.799z M57.04,86.715
		h-1.914c-0.639,0-1.156-0.52-1.156-1.156v-2.525c0-0.385,0.191-0.801,0.488-1.061l1.184-1.299c0.237-0.258,0.655-0.256,0.891-0.002
		l1.777,1.943h-0.183c0.045,0.139,0.07,0.281,0.07,0.418v2.524C58.198,86.195,57.678,86.715,57.04,86.715z M56.09,81.078
		L54.877,82.4c-0.191,0.17-0.31,0.42-0.31,0.633v2.525c0,0.307,0.25,0.557,0.558,0.557h1.914c0.307,0,0.559-0.25,0.559-0.557v-2.525
		c0-0.174-0.078-0.375-0.205-0.525l-0.047-0.057L56.09,81.078z M95.688,85.955l-0.793-0.791l-0.789,0.789l-0.617-0.615l0.791-0.791
		l-0.791-0.789l0.617-0.617l0.789,0.791l0.793-0.791l0.613,0.617l-0.789,0.789l0.789,0.789L95.688,85.955z M90.399,82.474
		c-1.295,0-2.348-1.053-2.348-2.346c0-1.295,1.053-2.349,2.348-2.349s2.348,1.054,2.348,2.349
		C92.747,81.422,91.694,82.474,90.399,82.474z M90.399,78.381c-0.963,0-1.748,0.785-1.748,1.748s0.785,1.746,1.748,1.746
		s1.748-0.783,1.748-1.746S91.362,78.381,90.399,78.381z M61.321,82.246h-2.525c-0.383,0-0.801-0.191-1.061-0.488l-1.297-1.186
		c-0.127-0.115-0.199-0.277-0.199-0.445c0-0.029,0.002-0.059,0.006-0.086c-0.143,0.039-0.305,0.021-0.438-0.049
		c0.012,0.045,0.018,0.09,0.018,0.135c0,0.168-0.072,0.33-0.199,0.445l-1.32,1.209c-0.236,0.272-0.654,0.465-1.039,0.465h-2.525
		c-0.637,0-1.154-0.52-1.154-1.156v-1.914c0-0.639,0.518-1.158,1.154-1.158h2.525c0.139,0,0.281,0.025,0.42,0.07v-0.18l1.025,0.938
		l-0.277-0.305c-0.273-0.236-0.465-0.652-0.465-1.037v-2.525c0-0.637,0.518-1.156,1.156-1.156h1.914
		c0.639,0,1.158,0.521,1.158,1.156v2.525c0,0.139-0.025,0.279-0.07,0.418h0.176l-0.268,0.297l0.342-0.312v0.182
		c0.14-0.045,0.281-0.07,0.418-0.07h2.525c0.637,0,1.156,0.52,1.156,1.158v1.914C62.477,81.727,61.958,82.246,61.321,82.246z
		 M58.243,78.843l-1.398,1.281l1.318,1.213c0.17,0.19,0.42,0.31,0.633,0.31h2.525c0.307,0,0.557-0.25,0.557-0.558v-1.914
		c0-0.31-0.25-0.56-0.557-0.56h-2.525c-0.174,0-0.375,0.078-0.526,0.205L58.243,78.843z M50.741,78.617
		c-0.307,0-0.555,0.25-0.555,0.559v1.914c0,0.307,0.248,0.557,0.555,0.557h2.525c0.213,0,0.465-0.117,0.611-0.285l1.344-1.231
		l-1.427-1.31c-0.15-0.125-0.354-0.203-0.527-0.203H50.741z M55.125,74.422c-0.307,0-0.557,0.25-0.557,0.557v2.525
		c0,0.213,0.117,0.463,0.283,0.609l1.232,1.346l0.004,0.303l-0.002-0.301c0,0,0.004,0,0.008-0.006l1.299-1.426
		c0.127-0.15,0.205-0.351,0.205-0.525v-2.525c0-0.307-0.252-0.557-0.559-0.557H55.125z M99.422,81.49
		c-0.764,0-1.387-0.623-1.387-1.389c0-0.765,0.623-1.388,1.387-1.388c0.767,0,1.39,0.623,1.39,1.388
		C100.811,80.867,100.188,81.49,99.422,81.49z M99.422,79.314c-0.434,0-0.787,0.354-0.787,0.787c0,0.436,0.354,0.788,0.787,0.788
		c0.437,0,0.789-0.354,0.789-0.788S99.858,79.314,99.422,79.314z M91.559,81.263h-2.32v-2.321h2.32V81.263z M89.838,80.664h1.121
		v-1.123h-1.121V80.664z M85.969,77.91c-0.857,0-1.555-0.699-1.555-1.557V73.77c0-0.857,0.696-1.558,1.555-1.558
		s1.557,0.698,1.557,1.558v2.584C87.526,77.211,86.829,77.91,85.969,77.91z M85.969,72.812c-0.527,0-0.955,0.43-0.955,0.957v2.584
		c0,0.526,0.428,0.957,0.955,0.957c0.526,0,0.957-0.431,0.957-0.957V73.77C86.926,73.242,86.497,72.812,85.969,72.812z
		 M64.844,77.91c-0.857,0-1.555-0.699-1.555-1.557V73.77c0-0.857,0.696-1.558,1.555-1.558c0.857,0,1.557,0.698,1.557,1.558v2.584
		C66.401,77.211,65.702,77.91,64.844,77.91z M64.844,72.812c-0.527,0-0.955,0.43-0.955,0.957v2.584c0,0.526,0.428,0.957,0.955,0.957
		c0.526,0,0.957-0.431,0.957-0.957V73.77C65.801,73.242,65.372,72.812,64.844,72.812z M22.032,89.281
		c0.07,0.018,0.141,0.039,0.211,0.063c0.195,0.072,0.381,0.235,0.377,0.457c-0.008,0.644-0.002,1.289-0.002,1.935
		c0,0.069,0,0.141,0.01,0.211c0.027,0.221,0.133,0.426,0.365,0.596c0.16,0.121,0.336,0.184,0.518,0.223
		c0.381,0.082,0.666-0.098,0.666-0.418c0-0.977,0-1.955,0-2.93c0-0.02,0-0.039,0-0.066c-0.082-0.023-0.152-0.039-0.225-0.064
		c-0.059-0.02-0.072-0.004-0.072,0.043c0.002,0.523,0.002,1.046,0.002,1.568c0,0.367,0,0.732,0,1.098
		c-0.002,0.183-0.104,0.271-0.311,0.248c-0.088-0.008-0.184-0.032-0.273-0.065c-0.252-0.101-0.365-0.248-0.365-0.461
		c0-0.696-0.006-1.396,0.002-2.092c0.004-0.349-0.309-0.679-0.682-0.802c-0.311-0.102-0.623-0.18-0.934-0.27
		c-0.039-0.01-0.055-0.004-0.055,0.031c0.002,0.145,0.004,0.289,0,0.432c0,0.041,0.018,0.055,0.063,0.066
		C21.561,89.148,21.796,89.215,22.032,89.281z M22.03,93.861c0.447,0.129,0.893,0.25,1.34,0.375c0.057,0.016,0.113,0.035,0.17,0.057
		c0.168,0.066,0.291,0.189,0.326,0.326c0.012,0.045,0.014,0.088,0.014,0.131c0.002,0.447,0.002,0.895,0.002,1.342
		c0,0.012-0.006,0.023,0,0.035c0.01,0.016,0.025,0.041,0.041,0.045c0.08,0.025,0.164,0.047,0.254,0.072c0-0.018,0-0.029,0-0.041
		c0-0.563,0.006-1.123-0.002-1.688c-0.004-0.188-0.102-0.375-0.287-0.541c-0.139-0.122-0.299-0.202-0.469-0.25
		c-0.459-0.129-0.92-0.254-1.381-0.385c-0.27-0.076-0.467-0.242-0.461-0.515c0.01-0.463,0.004-0.932,0.004-1.397
		c0-0.015-0.002-0.022,0-0.035c0.002-0.03-0.012-0.049-0.051-0.059c-0.068-0.019-0.137-0.035-0.207-0.058
		c-0.047-0.016-0.059-0.002-0.059,0.035c0.002,0.553,0,1.105,0.002,1.658c0,0.145,0.035,0.295,0.133,0.445
		C21.548,93.648,21.77,93.787,22.03,93.861z M24.081,98.143c-0.178-0.294-0.357-0.589-0.537-0.882
		c-0.531-0.873-1.064-1.748-1.598-2.623c-0.027-0.045-0.061-0.09-0.098-0.131c-0.107-0.108-0.223-0.108-0.254,0
		c-0.012,0.043-0.014,0.09-0.014,0.14c-0.002,0.891-0.002,1.78,0,2.672c0,0.039-0.014,0.051-0.063,0.035
		c-0.08-0.025-0.16-0.048-0.246-0.07c0,0.178,0,0.35,0,0.527c0.082,0.022,0.16,0.047,0.238,0.065c0.055,0.012,0.072,0.03,0.07,0.077
		c-0.004,0.14-0.002,0.279,0,0.421c0,0.016,0.016,0.049,0.025,0.051c0.094,0.028,0.186,0.056,0.283,0.08
		c0.002-0.022,0.004-0.041,0.004-0.06c0-0.133,0.002-0.266-0.002-0.399c0-0.05,0.014-0.063,0.074-0.045
		c0.631,0.178,1.262,0.354,1.891,0.526c0.063,0.019,0.127,0.027,0.186,0.029c0.094,0.002,0.129-0.045,0.137-0.125
		C24.186,98.336,24.141,98.24,24.081,98.143z M23.565,97.924c-0.541-0.15-1.084-0.301-1.627-0.453
		c-0.01-0.002-0.021-0.008-0.039-0.014c0-0.781,0-1.561,0-2.34c0.006-0.002,0.012-0.002,0.018-0.002
		c0.014,0.018,0.027,0.033,0.039,0.051c0.549,0.9,1.1,1.803,1.648,2.703C23.641,97.931,23.633,97.943,23.565,97.924z"/>
</g>
<g>
</g>
<g>
</g>
<g>
</g>
<g>
</g>
<g>
</g>
<g>
</g>
<g>
</g>
<g>
</g>
<g>
</g>
<g>
</g>
<g>
</g>
<g>
</g>
<g>
</g>
<g>
</g>
<g>
</g>
</svg>
